<svg xmlns="http://www.w3.org/2000/svg" width="42.68" height="48.78" viewBox="" class="looka-1j8o68f"><defs id="SvgjsDefs2097"><linearGradient id="SvgjsLinearGradient2102"><stop id="SvgjsStop2103" stop-color="#fbb040" offset="0"></stop><stop id="SvgjsStop2104" stop-color="#f9ed32" offset="1"></stop></linearGradient></defs><g id="SvgjsG2098" featurekey="JKiIdh-0" transform="matrix(0.6097303793453813,0,0,0.6097303793453813,-9.144156578057522,-6.097339845474382)" fill="url(#SvgjsLinearGradient2102)"><rect xmlns="http://www.w3.org/2000/svg" x="25.249" y="20.252" transform="matrix(0.7071 0.7071 -0.7071 0.7071 46.463 -22.1737)" fill="none" stroke="url(#SvgjsLinearGradient2102)" stroke-width="2" stroke-linecap="round" stroke-linejoin="round" stroke-miterlimit="10" width="49.499" height="49.497"></rect><path xmlns="http://www.w3.org/2000/svg" stroke="url(#SvgjsLinearGradient2102)" stroke-width="2" stroke-linecap="round" stroke-linejoin="round" stroke-miterlimit="10" d="M49.999,69.395  l24.394-24.392L50,20.608L25.608,45.002L49.999,69.395z M63.785,45.002L49.999,58.787L36.214,45.002L50,31.215L63.785,45.002z"></path><rect xmlns="http://www.w3.org/2000/svg" x="47.754" y="42.754" transform="matrix(-0.707 0.7072 -0.7072 -0.707 117.1804 41.4576)" stroke="url(#SvgjsLinearGradient2102)" stroke-width="2" stroke-linecap="round" stroke-linejoin="round" stroke-miterlimit="10" width="4.496" height="4.497"></rect><polygon xmlns="http://www.w3.org/2000/svg" stroke="url(#SvgjsLinearGradient2102)" stroke-width="2" stroke-linecap="round" stroke-linejoin="round" stroke-miterlimit="10" points="  49.999,80 20,50.004 15.002,55 49.999,90 85,55 80,50 "></polygon></g></svg>