<svg xmlns="http://www.w3.org/2000/svg" width="429" height="36.76092685536521" viewBox="0 0 350.00000000000006 29.99143216638188" class="looka-1j8o68f"><defs id="SvgjsDefs1808"></defs><g id="SvgjsG1809" featurekey="A7DQL5-0" transform="matrix(2.1422450088127025,0,0,2.1422450088127025,-0.8568980162938563,-12.85346800987217)" fill="#fff"><path d="M0.4 20 l1.14 -5.6 l4.28 0 l-0.86 -4.28 l-0.68 3.44 l-2.58 0 l1.52 -7.56 l3.48 0 l2.2 10.92 l-5.3 0 l-0.62 3.08 l-2.58 0 z M6.96 20 l-0.46 -2.24 l2.58 0 l0.44 2.24 l-2.56 0 z M14.08 15.1 l0 -2.52 l1.58 0 l0.38 -0.38 l0 -3.3 l-0.38 -0.38 l-1.58 0 l0 -2.52 l2.62 0 l1.86 1.86 l0 5.38 l-1.86 1.86 l-2.62 0 z M10.72 20 l0 -4.06 l2.52 0 l0 4.06 l-2.52 0 z M10.72 15.1 l0 -9.1 l2.52 0 l0 9.1 l-2.52 0 z M23.52 15.1 l0 -2.52 l1.58 0 l0.38 -0.38 l0 -3.3 l-0.38 -0.38 l-1.58 0 l0 -2.52 l2.62 0 l1.86 1.86 l0 5.38 l-1.86 1.86 l-2.62 0 z M20.16 20 l0 -4.06 l2.52 0 l0 4.06 l-2.52 0 z M20.16 15.1 l0 -9.1 l2.52 0 l0 9.1 l-2.52 0 z M32.26 20 l0 -10.64 l2.52 0 l0 10.64 l-2.52 0 z M29.599999999999998 8.52 l0 -2.52 l7.84 0 l0 2.52 l-7.84 0 z M39.03999999999999 14.26 l0 -8.26 l2.52 0 l0 8.26 l-2.52 0 z M39.03999999999999 20 l0 -4.9 l2.52 0 l0 4.9 l-2.52 0 z M42.39999999999999 20 l0 -2.52 l3.5 0 l0 2.52 l-3.5 0 z M42.39999999999999 14.26 l0 -2.52 l2.38 0 l0 2.52 l-2.38 0 z M42.39999999999999 8.52 l0 -2.52 l3.5 0 l0 2.52 l-3.5 0 z M49.36 20 l-1.86 -1.86 l0 -10.28 l1.86 -1.86 l1.78 0 l0 2.52 l-0.74 0 l-0.38 0.38 l0 8.2 l0.38 0.38 l0.74 0 l0 2.52 l-1.78 0 z M51.98 20 l0 -2.52 l0.74 0 l0.38 -0.38 l0 -1.58 l2.52 0 l0 2.62 l-1.86 1.86 l-1.78 0 z M53.099999999999994 10.48 l0 -1.58 l-0.38 -0.38 l-0.74 0 l0 -2.52 l1.78 0 l1.86 1.86 l0 2.62 l-2.52 0 z M60.58 14.26 l0 -2.52 l2.24 0 l0 -5.74 l2.52 0 l0 8.26 l-4.76 0 z M57.21999999999999 20 l0 -14 l2.52 0 l0 14 l-2.52 0 z M62.81999999999999 20 l0 -4.9 l2.52 0 l0 4.9 l-2.52 0 z M73.39999999999999 20 l0 -10.64 l2.52 0 l0 10.64 l-2.52 0 z M70.74 8.52 l0 -2.52 l7.84 0 l0 2.52 l-7.84 0 z M80.17999999999999 14.26 l0 -8.26 l2.52 0 l0 8.26 l-2.52 0 z M80.17999999999999 20 l0 -4.9 l2.52 0 l0 4.9 l-2.52 0 z M83.53999999999999 20 l0 -2.52 l3.5 0 l0 2.52 l-3.5 0 z M83.53999999999999 14.26 l0 -2.52 l2.38 0 l0 2.52 l-2.38 0 z M83.53999999999999 8.52 l0 -2.52 l3.5 0 l0 2.52 l-3.5 0 z M90.5 20 l-1.86 -1.86 l0 -10.28 l1.86 -1.86 l1.78 0 l0 2.52 l-0.74 0 l-0.38 0.38 l0 8.2 l0.38 0.38 l0.74 0 l0 2.52 l-1.78 0 z M93.12 20 l0 -2.52 l0.74 0 l0.38 -0.38 l0 -1.58 l2.52 0 l0 2.62 l-1.86 1.86 l-1.78 0 z M94.24000000000001 10.48 l0 -1.58 l-0.38 -0.38 l-0.74 0 l0 -2.52 l1.78 0 l1.86 1.86 l0 2.62 l-2.52 0 z M101.72 14.26 l0 -2.52 l2.24 0 l0 -5.74 l2.52 0 l0 8.26 l-4.76 0 z M98.36 20 l0 -14 l2.52 0 l0 14 l-2.52 0 z M103.96000000000001 20 l0 -4.9 l2.52 0 l0 4.9 l-2.52 0 z M113.56 20 l-5.48 -14 l2.72 0 l2.92 7.48 l0 -7.48 l2.52 0 l0 14 l-2.68 0 z M108.12 20 l0 -11.6 l2.52 6.42 l0 5.18 l-2.52 0 z M122.4 20 l0 -2.52 l0.8 0 l0.38 -0.38 l0 -8.2 l-0.38 -0.38 l-0.8 0 l0 -2.52 l1.84 0 l1.86 1.86 l0 10.28 l-1.86 1.86 l-1.84 0 z M119.7 20 l-1.86 -1.86 l0 -10.28 l1.86 -1.86 l1.84 0 l0 2.52 l-0.8 0 l-0.38 0.38 l0 8.2 l0.38 0.38 l0.8 0 l0 2.52 l-1.84 0 z M127.7 16.64 l0 -10.64 l2.52 0 l0 10.64 l-2.52 0 z M127.7 20 l0 -2.52 l2.52 0 l0 2.52 l-2.52 0 z M131.06 20 l0 -2.52 l3.08 0 l0 2.52 l-3.08 0 z M140.3 20 l0 -2.52 l0.8 0 l0.38 -0.38 l0 -8.2 l-0.38 -0.38 l-0.8 0 l0 -2.52 l1.84 0 l1.86 1.86 l0 10.28 l-1.86 1.86 l-1.84 0 z M137.6 20 l-1.86 -1.86 l0 -10.28 l1.86 -1.86 l1.84 0 l0 2.52 l-0.8 0 l-0.38 0.38 l0 8.2 l0.38 0.38 l0.8 0 l0 2.52 l-1.84 0 z M150.08 20 l0 -2.52 l0.74 0 l0.38 -0.38 l0 -2.84 l-1.26 0 l0 -2.52 l3.78 0 l0 6.4 l-1.86 1.86 l-1.78 0 z M147.46 20 l-1.86 -1.86 l0 -3.04 l2.52 0 l0 2 l0.38 0.38 l0.74 0 l0 2.52 l-1.78 0 z M145.60000000000002 14.26 l0 -6.4 l1.86 -1.86 l1.78 0 l0 2.52 l-0.74 0 l-0.38 0.38 l0 5.36 l-2.52 0 z M151.20000000000002 10.48 l0 -1.58 l-0.38 -0.38 l-0.74 0 l0 -2.52 l1.78 0 l1.86 1.86 l0 2.62 l-2.52 0 z M158.10000000000002 20 l0 -5.2 l-3.18 -8.8 l2.68 0 l3.02 8.36 l0 5.64 l-2.52 0 z M161.14000000000001 13.32 l-1.34 -3.7 l1.3 -3.62 l2.68 0 z"></path></g></svg>